<mxfile host="app.diagrams.net" modified="2023-08-27T14:38:33.303Z" agent="Mozilla/5.0 (Macintosh; Intel Mac OS X 10_15_7) AppleWebKit/537.36 (KHTML, like Gecko) Chrome/115.0.0.0 Safari/537.36" etag="ODOb3m5gq1aTZKECLsBz" version="21.6.8" type="github" pages="2">
  <diagram id="d0lNQN6iO_YzZ3tk6-hW" name="网络关系">
    <mxGraphModel dx="1026" dy="655" grid="1" gridSize="10" guides="1" tooltips="1" connect="1" arrows="1" fold="1" page="1" pageScale="1" pageWidth="827" pageHeight="1169" math="0" shadow="0">
      <root>
        <mxCell id="0" />
        <mxCell id="1" parent="0" />
        <mxCell id="QjCHHoGfmRGLJOgUx-rt-3" value="" style="rounded=0;whiteSpace=wrap;html=1;fillColor=#f8cecc;strokeColor=#b85450;" parent="1" vertex="1">
          <mxGeometry x="70" y="30" width="670" height="400" as="geometry" />
        </mxCell>
        <mxCell id="QjCHHoGfmRGLJOgUx-rt-2" value="" style="rounded=0;whiteSpace=wrap;html=1;fillColor=#dae8fc;strokeColor=#6c8ebf;" parent="1" vertex="1">
          <mxGeometry x="100" y="80" width="520" height="330" as="geometry" />
        </mxCell>
        <mxCell id="QjCHHoGfmRGLJOgUx-rt-4" value="容器主机" style="text;html=1;strokeColor=none;fillColor=none;align=center;verticalAlign=middle;whiteSpace=wrap;rounded=0;" parent="1" vertex="1">
          <mxGeometry x="650" y="50" width="60" height="30" as="geometry" />
        </mxCell>
        <mxCell id="QjCHHoGfmRGLJOgUx-rt-6" value="k3d" style="text;html=1;strokeColor=none;fillColor=none;align=center;verticalAlign=middle;whiteSpace=wrap;rounded=0;" parent="1" vertex="1">
          <mxGeometry x="520" y="110" width="60" height="30" as="geometry" />
        </mxCell>
        <mxCell id="QjCHHoGfmRGLJOgUx-rt-7" value="server" style="rounded=0;whiteSpace=wrap;html=1;" parent="1" vertex="1">
          <mxGeometry x="150" y="620" width="80" height="60" as="geometry" />
        </mxCell>
        <mxCell id="QjCHHoGfmRGLJOgUx-rt-8" value="agent" style="rounded=0;whiteSpace=wrap;html=1;" parent="1" vertex="1">
          <mxGeometry x="310" y="555" width="80" height="60" as="geometry" />
        </mxCell>
        <mxCell id="QjCHHoGfmRGLJOgUx-rt-9" value="agent" style="rounded=0;whiteSpace=wrap;html=1;" parent="1" vertex="1">
          <mxGeometry x="310" y="670" width="80" height="60" as="geometry" />
        </mxCell>
      </root>
    </mxGraphModel>
  </diagram>
  <diagram id="A796mNEGtDM0lOxTOc-f" name="iptables">
    <mxGraphModel dx="1266" dy="655" grid="1" gridSize="10" guides="1" tooltips="1" connect="1" arrows="1" fold="1" page="0" pageScale="1" pageWidth="827" pageHeight="1169" background="none" math="0" shadow="0">
      <root>
        <mxCell id="0" />
        <mxCell id="1" parent="0" />
        <mxCell id="j3D5NYtS4tXC3Rus6Ahq-23" value="" style="rounded=0;whiteSpace=wrap;html=1;fillColor=#fad9d5;strokeColor=#ae4132;" vertex="1" parent="1">
          <mxGeometry x="460" y="190" width="550" height="200" as="geometry" />
        </mxCell>
        <mxCell id="j3D5NYtS4tXC3Rus6Ahq-34" value="&lt;b&gt;netfilter&lt;/b&gt;(内核网络框架)" style="rounded=0;whiteSpace=wrap;html=1;fillColor=#e1d5e7;strokeColor=#9673a6;" vertex="1" parent="1">
          <mxGeometry x="590" y="210" width="390" height="60" as="geometry" />
        </mxCell>
        <mxCell id="j3D5NYtS4tXC3Rus6Ahq-1" value="" style="rounded=0;whiteSpace=wrap;html=1;fillColor=#dae8fc;strokeColor=#6c8ebf;" vertex="1" parent="1">
          <mxGeometry x="460" y="70" width="550" height="120" as="geometry" />
        </mxCell>
        <mxCell id="j3D5NYtS4tXC3Rus6Ahq-20" style="edgeStyle=orthogonalEdgeStyle;rounded=0;orthogonalLoop=1;jettySize=auto;html=1;entryX=0.5;entryY=0;entryDx=0;entryDy=0;" edge="1" parent="1" source="j3D5NYtS4tXC3Rus6Ahq-2" target="j3D5NYtS4tXC3Rus6Ahq-14">
          <mxGeometry relative="1" as="geometry">
            <Array as="points">
              <mxPoint x="930" y="180" />
              <mxPoint x="930" y="180" />
            </Array>
          </mxGeometry>
        </mxCell>
        <mxCell id="j3D5NYtS4tXC3Rus6Ahq-2" value="Web服务(监听 ip:port)&lt;br&gt;终点/原点" style="rounded=0;whiteSpace=wrap;html=1;fillColor=#b1ddf0;strokeColor=#10739e;" vertex="1" parent="1">
          <mxGeometry x="490" y="107" width="490" height="60" as="geometry" />
        </mxCell>
        <mxCell id="j3D5NYtS4tXC3Rus6Ahq-3" value="用户空间" style="text;html=1;strokeColor=none;fillColor=none;align=center;verticalAlign=middle;whiteSpace=wrap;rounded=0;" vertex="1" parent="1">
          <mxGeometry x="460" y="70" width="60" height="30" as="geometry" />
        </mxCell>
        <mxCell id="j3D5NYtS4tXC3Rus6Ahq-8" style="edgeStyle=orthogonalEdgeStyle;rounded=0;orthogonalLoop=1;jettySize=auto;html=1;entryX=0;entryY=0.5;entryDx=0;entryDy=0;strokeColor=#3333FF;" edge="1" parent="1" source="j3D5NYtS4tXC3Rus6Ahq-5" target="j3D5NYtS4tXC3Rus6Ahq-7">
          <mxGeometry relative="1" as="geometry" />
        </mxCell>
        <mxCell id="j3D5NYtS4tXC3Rus6Ahq-5" value="prerouting" style="rounded=1;whiteSpace=wrap;html=1;" vertex="1" parent="1">
          <mxGeometry x="490" y="310" width="87" height="40" as="geometry" />
        </mxCell>
        <mxCell id="j3D5NYtS4tXC3Rus6Ahq-11" style="edgeStyle=orthogonalEdgeStyle;rounded=0;orthogonalLoop=1;jettySize=auto;html=1;entryX=0;entryY=0.5;entryDx=0;entryDy=0;strokeColor=#3333FF;" edge="1" parent="1" source="j3D5NYtS4tXC3Rus6Ahq-7" target="j3D5NYtS4tXC3Rus6Ahq-9">
          <mxGeometry relative="1" as="geometry" />
        </mxCell>
        <mxCell id="j3D5NYtS4tXC3Rus6Ahq-15" style="edgeStyle=orthogonalEdgeStyle;rounded=0;orthogonalLoop=1;jettySize=auto;html=1;entryX=0.5;entryY=1;entryDx=0;entryDy=0;" edge="1" parent="1" source="j3D5NYtS4tXC3Rus6Ahq-7" target="j3D5NYtS4tXC3Rus6Ahq-13">
          <mxGeometry relative="1" as="geometry" />
        </mxCell>
        <mxCell id="j3D5NYtS4tXC3Rus6Ahq-7" value="目标是否&lt;br&gt;为本机" style="rhombus;whiteSpace=wrap;html=1;" vertex="1" parent="1">
          <mxGeometry x="607" y="290" width="80" height="80" as="geometry" />
        </mxCell>
        <mxCell id="j3D5NYtS4tXC3Rus6Ahq-12" style="edgeStyle=orthogonalEdgeStyle;rounded=0;orthogonalLoop=1;jettySize=auto;html=1;entryX=0;entryY=0.5;entryDx=0;entryDy=0;strokeColor=#3333FF;" edge="1" parent="1" source="j3D5NYtS4tXC3Rus6Ahq-9" target="j3D5NYtS4tXC3Rus6Ahq-10">
          <mxGeometry relative="1" as="geometry" />
        </mxCell>
        <mxCell id="j3D5NYtS4tXC3Rus6Ahq-9" value="forward" style="rounded=1;whiteSpace=wrap;html=1;" vertex="1" parent="1">
          <mxGeometry x="754" y="310" width="86" height="40" as="geometry" />
        </mxCell>
        <mxCell id="j3D5NYtS4tXC3Rus6Ahq-28" style="edgeStyle=orthogonalEdgeStyle;rounded=0;orthogonalLoop=1;jettySize=auto;html=1;exitX=0.5;exitY=1;exitDx=0;exitDy=0;" edge="1" parent="1" source="j3D5NYtS4tXC3Rus6Ahq-10">
          <mxGeometry relative="1" as="geometry">
            <mxPoint x="930" y="360" as="sourcePoint" />
            <mxPoint x="420" y="500" as="targetPoint" />
            <Array as="points">
              <mxPoint x="930" y="500" />
            </Array>
          </mxGeometry>
        </mxCell>
        <mxCell id="j3D5NYtS4tXC3Rus6Ahq-29" style="edgeStyle=orthogonalEdgeStyle;rounded=0;orthogonalLoop=1;jettySize=auto;html=1;exitX=1;exitY=0.5;exitDx=0;exitDy=0;strokeColor=#3333FF;" edge="1" parent="1" source="j3D5NYtS4tXC3Rus6Ahq-10">
          <mxGeometry relative="1" as="geometry">
            <mxPoint x="1100" y="490" as="targetPoint" />
            <Array as="points">
              <mxPoint x="980" y="330" />
              <mxPoint x="980" y="490" />
              <mxPoint x="1090" y="490" />
            </Array>
          </mxGeometry>
        </mxCell>
        <mxCell id="j3D5NYtS4tXC3Rus6Ahq-30" value="转发至其他主机" style="edgeLabel;html=1;align=center;verticalAlign=middle;resizable=0;points=[];" vertex="1" connectable="0" parent="j3D5NYtS4tXC3Rus6Ahq-29">
          <mxGeometry x="0.4843" y="-1" relative="1" as="geometry">
            <mxPoint x="14" y="-1" as="offset" />
          </mxGeometry>
        </mxCell>
        <mxCell id="j3D5NYtS4tXC3Rus6Ahq-10" value="postrouting" style="rounded=1;whiteSpace=wrap;html=1;" vertex="1" parent="1">
          <mxGeometry x="887" y="310" width="86" height="40" as="geometry" />
        </mxCell>
        <mxCell id="j3D5NYtS4tXC3Rus6Ahq-17" style="edgeStyle=orthogonalEdgeStyle;rounded=0;orthogonalLoop=1;jettySize=auto;html=1;entryX=0.318;entryY=1.05;entryDx=0;entryDy=0;entryPerimeter=0;" edge="1" parent="1">
          <mxGeometry relative="1" as="geometry">
            <mxPoint x="648" y="220" as="sourcePoint" />
            <mxPoint x="646.8199999999999" y="170" as="targetPoint" />
            <Array as="points">
              <mxPoint x="648" y="221" />
              <mxPoint x="647" y="221" />
            </Array>
          </mxGeometry>
        </mxCell>
        <mxCell id="j3D5NYtS4tXC3Rus6Ahq-13" value="input" style="rounded=1;whiteSpace=wrap;html=1;" vertex="1" parent="1">
          <mxGeometry x="604" y="220" width="86" height="40" as="geometry" />
        </mxCell>
        <mxCell id="j3D5NYtS4tXC3Rus6Ahq-16" style="edgeStyle=orthogonalEdgeStyle;rounded=0;orthogonalLoop=1;jettySize=auto;html=1;entryX=0.5;entryY=0;entryDx=0;entryDy=0;" edge="1" parent="1" source="j3D5NYtS4tXC3Rus6Ahq-14" target="j3D5NYtS4tXC3Rus6Ahq-10">
          <mxGeometry relative="1" as="geometry" />
        </mxCell>
        <mxCell id="j3D5NYtS4tXC3Rus6Ahq-14" value="output" style="rounded=1;whiteSpace=wrap;html=1;" vertex="1" parent="1">
          <mxGeometry x="887" y="220" width="86" height="40" as="geometry" />
        </mxCell>
        <mxCell id="j3D5NYtS4tXC3Rus6Ahq-21" value="是" style="text;html=1;strokeColor=none;fillColor=none;align=center;verticalAlign=middle;whiteSpace=wrap;rounded=0;" vertex="1" parent="1">
          <mxGeometry x="580" y="260" width="60" height="30" as="geometry" />
        </mxCell>
        <mxCell id="j3D5NYtS4tXC3Rus6Ahq-22" value="否" style="text;html=1;strokeColor=none;fillColor=none;align=center;verticalAlign=middle;whiteSpace=wrap;rounded=0;" vertex="1" parent="1">
          <mxGeometry x="677" y="300" width="60" height="30" as="geometry" />
        </mxCell>
        <mxCell id="j3D5NYtS4tXC3Rus6Ahq-24" value="内核空间" style="text;html=1;strokeColor=none;fillColor=none;align=center;verticalAlign=middle;whiteSpace=wrap;rounded=0;" vertex="1" parent="1">
          <mxGeometry x="460" y="200" width="60" height="30" as="geometry" />
        </mxCell>
        <mxCell id="j3D5NYtS4tXC3Rus6Ahq-27" style="edgeStyle=orthogonalEdgeStyle;rounded=0;orthogonalLoop=1;jettySize=auto;html=1;entryX=0.5;entryY=1;entryDx=0;entryDy=0;" edge="1" parent="1" source="j3D5NYtS4tXC3Rus6Ahq-26" target="j3D5NYtS4tXC3Rus6Ahq-5">
          <mxGeometry relative="1" as="geometry" />
        </mxCell>
        <mxCell id="j3D5NYtS4tXC3Rus6Ahq-26" value="用户" style="shape=umlActor;verticalLabelPosition=bottom;verticalAlign=top;html=1;outlineConnect=0;" vertex="1" parent="1">
          <mxGeometry x="390" y="460" width="30" height="60" as="geometry" />
        </mxCell>
        <mxCell id="j3D5NYtS4tXC3Rus6Ahq-25" value="网卡" style="rounded=0;whiteSpace=wrap;html=1;fillColor=#d5e8d4;strokeColor=#82b366;" vertex="1" parent="1">
          <mxGeometry x="457" y="400" width="553" height="40" as="geometry" />
        </mxCell>
        <mxCell id="j3D5NYtS4tXC3Rus6Ahq-31" value="" style="endArrow=classic;html=1;rounded=0;strokeColor=#6F0000;fillColor=#a20025;" edge="1" parent="1">
          <mxGeometry width="50" height="50" relative="1" as="geometry">
            <mxPoint x="430" y="330" as="sourcePoint" />
            <mxPoint x="430" y="160" as="targetPoint" />
          </mxGeometry>
        </mxCell>
        <mxCell id="j3D5NYtS4tXC3Rus6Ahq-32" value="tcp协议传输" style="edgeLabel;html=1;align=center;verticalAlign=middle;resizable=0;points=[];" vertex="1" connectable="0" parent="j3D5NYtS4tXC3Rus6Ahq-31">
          <mxGeometry x="0.0833" y="1" relative="1" as="geometry">
            <mxPoint y="7" as="offset" />
          </mxGeometry>
        </mxCell>
        <mxCell id="j3D5NYtS4tXC3Rus6Ahq-35" value="netfilter(服务端)" style="rounded=0;whiteSpace=wrap;html=1;fillColor=#e1d5e7;strokeColor=#9673a6;" vertex="1" parent="1">
          <mxGeometry x="160" y="210" width="120" height="60" as="geometry" />
        </mxCell>
        <mxCell id="j3D5NYtS4tXC3Rus6Ahq-37" style="edgeStyle=orthogonalEdgeStyle;rounded=0;orthogonalLoop=1;jettySize=auto;html=1;" edge="1" parent="1" source="j3D5NYtS4tXC3Rus6Ahq-36">
          <mxGeometry relative="1" as="geometry">
            <mxPoint x="220" y="409.9999999999999" as="sourcePoint" />
            <mxPoint x="220" y="270" as="targetPoint" />
            <Array as="points" />
          </mxGeometry>
        </mxCell>
        <mxCell id="j3D5NYtS4tXC3Rus6Ahq-39" value="设置规则" style="edgeLabel;html=1;align=center;verticalAlign=middle;resizable=0;points=[];" vertex="1" connectable="0" parent="j3D5NYtS4tXC3Rus6Ahq-37">
          <mxGeometry x="0.0401" relative="1" as="geometry">
            <mxPoint as="offset" />
          </mxGeometry>
        </mxCell>
        <mxCell id="j3D5NYtS4tXC3Rus6Ahq-40" value="" style="edgeStyle=orthogonalEdgeStyle;rounded=0;orthogonalLoop=1;jettySize=auto;html=1;" edge="1" parent="1" target="j3D5NYtS4tXC3Rus6Ahq-36">
          <mxGeometry relative="1" as="geometry">
            <mxPoint x="220" y="409.9999999999999" as="sourcePoint" />
            <mxPoint x="220" y="270" as="targetPoint" />
            <Array as="points">
              <mxPoint x="220" y="270" />
            </Array>
          </mxGeometry>
        </mxCell>
        <mxCell id="j3D5NYtS4tXC3Rus6Ahq-36" value="iptables(客户端)" style="rounded=0;whiteSpace=wrap;html=1;fillColor=#e1d5e7;strokeColor=#9673a6;" vertex="1" parent="1">
          <mxGeometry x="160" y="350" width="120" height="60" as="geometry" />
        </mxCell>
        <mxCell id="j3D5NYtS4tXC3Rus6Ahq-44" value="" style="edgeStyle=orthogonalEdgeStyle;rounded=0;orthogonalLoop=1;jettySize=auto;html=1;" edge="1" parent="1" source="j3D5NYtS4tXC3Rus6Ahq-42" target="j3D5NYtS4tXC3Rus6Ahq-36">
          <mxGeometry relative="1" as="geometry" />
        </mxCell>
        <mxCell id="j3D5NYtS4tXC3Rus6Ahq-42" value="运维/管理员" style="shape=umlActor;verticalLabelPosition=bottom;verticalAlign=top;html=1;outlineConnect=0;" vertex="1" parent="1">
          <mxGeometry x="205" y="460" width="30" height="60" as="geometry" />
        </mxCell>
        <mxCell id="j3D5NYtS4tXC3Rus6Ahq-67" style="edgeStyle=orthogonalEdgeStyle;rounded=0;orthogonalLoop=1;jettySize=auto;html=1;" edge="1" parent="1" target="j3D5NYtS4tXC3Rus6Ahq-72">
          <mxGeometry relative="1" as="geometry">
            <mxPoint x="758" y="760" as="sourcePoint" />
            <mxPoint x="758" y="800" as="targetPoint" />
            <Array as="points">
              <mxPoint x="758" y="750" />
            </Array>
          </mxGeometry>
        </mxCell>
        <mxCell id="j3D5NYtS4tXC3Rus6Ahq-46" value="上层协议" style="rounded=0;whiteSpace=wrap;html=1;fillColor=#1ba1e2;fontColor=#ffffff;strokeColor=#006EAF;" vertex="1" parent="1">
          <mxGeometry x="340" y="709" width="510" height="50" as="geometry" />
        </mxCell>
        <mxCell id="j3D5NYtS4tXC3Rus6Ahq-47" value="" style="endArrow=classic;html=1;rounded=0;entryX=0;entryY=0.5;entryDx=0;entryDy=0;" edge="1" parent="1" target="j3D5NYtS4tXC3Rus6Ahq-50">
          <mxGeometry relative="1" as="geometry">
            <mxPoint x="70" y="1165" as="sourcePoint" />
            <mxPoint x="170" y="1165" as="targetPoint" />
          </mxGeometry>
        </mxCell>
        <mxCell id="j3D5NYtS4tXC3Rus6Ahq-48" value="数据包入口" style="edgeLabel;resizable=0;html=1;align=center;verticalAlign=middle;" connectable="0" vertex="1" parent="j3D5NYtS4tXC3Rus6Ahq-47">
          <mxGeometry relative="1" as="geometry" />
        </mxCell>
        <mxCell id="j3D5NYtS4tXC3Rus6Ahq-116" style="edgeStyle=orthogonalEdgeStyle;rounded=0;orthogonalLoop=1;jettySize=auto;html=1;entryX=0;entryY=0.5;entryDx=0;entryDy=0;" edge="1" parent="1" source="j3D5NYtS4tXC3Rus6Ahq-50" target="j3D5NYtS4tXC3Rus6Ahq-55">
          <mxGeometry relative="1" as="geometry" />
        </mxCell>
        <mxCell id="j3D5NYtS4tXC3Rus6Ahq-50" value="PREROUTING" style="rounded=0;whiteSpace=wrap;html=1;fillColor=#e51400;fontColor=#ffffff;strokeColor=#B20000;" vertex="1" parent="1">
          <mxGeometry x="205" y="1145" width="95" height="40" as="geometry" />
        </mxCell>
        <mxCell id="j3D5NYtS4tXC3Rus6Ahq-52" value="raw" style="rounded=1;whiteSpace=wrap;html=1;fillColor=#fff2cc;strokeColor=#d6b656;" vertex="1" parent="1">
          <mxGeometry x="205" y="1185" width="95" height="20" as="geometry" />
        </mxCell>
        <mxCell id="j3D5NYtS4tXC3Rus6Ahq-53" value="mangle" style="rounded=1;whiteSpace=wrap;html=1;fillColor=#fff2cc;strokeColor=#d6b656;" vertex="1" parent="1">
          <mxGeometry x="205" y="1205" width="95" height="20" as="geometry" />
        </mxCell>
        <mxCell id="j3D5NYtS4tXC3Rus6Ahq-54" value="nat" style="rounded=1;whiteSpace=wrap;html=1;fillColor=#fff2cc;strokeColor=#d6b656;" vertex="1" parent="1">
          <mxGeometry x="205" y="1225" width="95" height="20" as="geometry" />
        </mxCell>
        <mxCell id="j3D5NYtS4tXC3Rus6Ahq-62" style="edgeStyle=orthogonalEdgeStyle;rounded=0;orthogonalLoop=1;jettySize=auto;html=1;" edge="1" parent="1" source="j3D5NYtS4tXC3Rus6Ahq-55" target="j3D5NYtS4tXC3Rus6Ahq-60">
          <mxGeometry relative="1" as="geometry" />
        </mxCell>
        <mxCell id="j3D5NYtS4tXC3Rus6Ahq-76" style="edgeStyle=orthogonalEdgeStyle;rounded=0;orthogonalLoop=1;jettySize=auto;html=1;entryX=0;entryY=0.5;entryDx=0;entryDy=0;" edge="1" parent="1" source="j3D5NYtS4tXC3Rus6Ahq-55" target="j3D5NYtS4tXC3Rus6Ahq-74">
          <mxGeometry relative="1" as="geometry" />
        </mxCell>
        <mxCell id="j3D5NYtS4tXC3Rus6Ahq-55" value="路由判断" style="rhombus;whiteSpace=wrap;html=1;fillColor=#d5e8d4;strokeColor=#82b366;" vertex="1" parent="1">
          <mxGeometry x="379" y="1130" width="70" height="70" as="geometry" />
        </mxCell>
        <mxCell id="j3D5NYtS4tXC3Rus6Ahq-75" style="edgeStyle=orthogonalEdgeStyle;rounded=0;orthogonalLoop=1;jettySize=auto;html=1;" edge="1" parent="1" source="j3D5NYtS4tXC3Rus6Ahq-57">
          <mxGeometry relative="1" as="geometry">
            <mxPoint x="414" y="760" as="targetPoint" />
          </mxGeometry>
        </mxCell>
        <mxCell id="j3D5NYtS4tXC3Rus6Ahq-57" value="INPUT" style="rounded=0;whiteSpace=wrap;html=1;fillColor=#e51400;fontColor=#ffffff;strokeColor=#B20000;" vertex="1" parent="1">
          <mxGeometry x="366.5" y="840" width="95" height="40" as="geometry" />
        </mxCell>
        <mxCell id="j3D5NYtS4tXC3Rus6Ahq-58" value="filter" style="rounded=1;whiteSpace=wrap;html=1;fillColor=#fff2cc;strokeColor=#d6b656;" vertex="1" parent="1">
          <mxGeometry x="366" y="880" width="95" height="20" as="geometry" />
        </mxCell>
        <mxCell id="j3D5NYtS4tXC3Rus6Ahq-59" value="nat" style="rounded=1;whiteSpace=wrap;html=1;fillColor=#f5f5f5;strokeColor=#666666;fontColor=#333333;" vertex="1" parent="1">
          <mxGeometry x="366" y="900" width="95" height="20" as="geometry" />
        </mxCell>
        <mxCell id="j3D5NYtS4tXC3Rus6Ahq-60" value="mangle" style="rounded=1;whiteSpace=wrap;html=1;fillColor=#fff2cc;strokeColor=#d6b656;" vertex="1" parent="1">
          <mxGeometry x="366" y="920" width="95" height="20" as="geometry" />
        </mxCell>
        <mxCell id="j3D5NYtS4tXC3Rus6Ahq-64" value="centos6中 INPUT链的规则不能存在与 nat 表中&lt;br&gt;centos7中 INPUT 链的规则可以存在于 nat 表中" style="text;html=1;strokeColor=none;fillColor=none;align=center;verticalAlign=middle;whiteSpace=wrap;rounded=0;" vertex="1" parent="1">
          <mxGeometry x="90" y="895" width="260" height="30" as="geometry" />
        </mxCell>
        <mxCell id="j3D5NYtS4tXC3Rus6Ahq-88" style="edgeStyle=orthogonalEdgeStyle;rounded=0;orthogonalLoop=1;jettySize=auto;html=1;entryX=0.5;entryY=0;entryDx=0;entryDy=0;" edge="1" parent="1" source="j3D5NYtS4tXC3Rus6Ahq-68" target="j3D5NYtS4tXC3Rus6Ahq-83">
          <mxGeometry relative="1" as="geometry" />
        </mxCell>
        <mxCell id="j3D5NYtS4tXC3Rus6Ahq-68" value="OUTPUT" style="rounded=0;whiteSpace=wrap;html=1;fillColor=#e51400;fontColor=#ffffff;strokeColor=#B20000;" vertex="1" parent="1">
          <mxGeometry x="711.5" y="920" width="95" height="40" as="geometry" />
        </mxCell>
        <mxCell id="j3D5NYtS4tXC3Rus6Ahq-69" value="mangle" style="rounded=1;whiteSpace=wrap;html=1;fillColor=#fff2cc;strokeColor=#d6b656;" vertex="1" parent="1">
          <mxGeometry x="711.5" y="860" width="95" height="20" as="geometry" />
        </mxCell>
        <mxCell id="j3D5NYtS4tXC3Rus6Ahq-70" value="nat" style="rounded=1;whiteSpace=wrap;html=1;fillColor=#fff2cc;strokeColor=#d6b656;" vertex="1" parent="1">
          <mxGeometry x="711.5" y="880" width="95" height="20" as="geometry" />
        </mxCell>
        <mxCell id="j3D5NYtS4tXC3Rus6Ahq-71" value="filter" style="rounded=1;whiteSpace=wrap;html=1;fillColor=#fff2cc;strokeColor=#d6b656;" vertex="1" parent="1">
          <mxGeometry x="711.5" y="900" width="95" height="20" as="geometry" />
        </mxCell>
        <mxCell id="j3D5NYtS4tXC3Rus6Ahq-72" value="raw" style="rounded=1;whiteSpace=wrap;html=1;fillColor=#fff2cc;strokeColor=#d6b656;" vertex="1" parent="1">
          <mxGeometry x="711.5" y="840" width="95" height="20" as="geometry" />
        </mxCell>
        <mxCell id="j3D5NYtS4tXC3Rus6Ahq-117" style="edgeStyle=orthogonalEdgeStyle;rounded=0;orthogonalLoop=1;jettySize=auto;html=1;entryX=0;entryY=0.5;entryDx=0;entryDy=0;" edge="1" parent="1" source="j3D5NYtS4tXC3Rus6Ahq-74" target="j3D5NYtS4tXC3Rus6Ahq-83">
          <mxGeometry relative="1" as="geometry" />
        </mxCell>
        <mxCell id="j3D5NYtS4tXC3Rus6Ahq-74" value="FORWARD" style="rounded=0;whiteSpace=wrap;html=1;fillColor=#e51400;fontColor=#ffffff;strokeColor=#B20000;" vertex="1" parent="1">
          <mxGeometry x="530" y="1145" width="95" height="40" as="geometry" />
        </mxCell>
        <mxCell id="j3D5NYtS4tXC3Rus6Ahq-77" value="mangle" style="rounded=1;whiteSpace=wrap;html=1;fillColor=#fff2cc;strokeColor=#d6b656;" vertex="1" parent="1">
          <mxGeometry x="530" y="1185" width="95" height="20" as="geometry" />
        </mxCell>
        <mxCell id="j3D5NYtS4tXC3Rus6Ahq-78" value="filter" style="rounded=1;whiteSpace=wrap;html=1;fillColor=#fff2cc;strokeColor=#d6b656;" vertex="1" parent="1">
          <mxGeometry x="530" y="1205" width="95" height="20" as="geometry" />
        </mxCell>
        <mxCell id="j3D5NYtS4tXC3Rus6Ahq-114" style="edgeStyle=orthogonalEdgeStyle;rounded=0;orthogonalLoop=1;jettySize=auto;html=1;" edge="1" parent="1" source="j3D5NYtS4tXC3Rus6Ahq-79">
          <mxGeometry relative="1" as="geometry">
            <mxPoint x="1100" y="1165" as="targetPoint" />
          </mxGeometry>
        </mxCell>
        <mxCell id="j3D5NYtS4tXC3Rus6Ahq-115" value="数据包出口" style="edgeLabel;html=1;align=center;verticalAlign=middle;resizable=0;points=[];" vertex="1" connectable="0" parent="j3D5NYtS4tXC3Rus6Ahq-114">
          <mxGeometry x="-0.1023" y="-3" relative="1" as="geometry">
            <mxPoint x="4" y="-3" as="offset" />
          </mxGeometry>
        </mxCell>
        <mxCell id="j3D5NYtS4tXC3Rus6Ahq-79" value="POSTROUTING" style="rounded=0;whiteSpace=wrap;html=1;fillColor=#e51400;fontColor=#ffffff;strokeColor=#B20000;" vertex="1" parent="1">
          <mxGeometry x="878" y="1145" width="95" height="40" as="geometry" />
        </mxCell>
        <mxCell id="j3D5NYtS4tXC3Rus6Ahq-80" value="mangle" style="rounded=1;whiteSpace=wrap;html=1;fillColor=#fff2cc;strokeColor=#d6b656;" vertex="1" parent="1">
          <mxGeometry x="878" y="1185" width="95" height="20" as="geometry" />
        </mxCell>
        <mxCell id="j3D5NYtS4tXC3Rus6Ahq-81" value="filter" style="rounded=1;whiteSpace=wrap;html=1;fillColor=#fff2cc;strokeColor=#d6b656;" vertex="1" parent="1">
          <mxGeometry x="878" y="1205" width="95" height="20" as="geometry" />
        </mxCell>
        <mxCell id="j3D5NYtS4tXC3Rus6Ahq-86" style="edgeStyle=orthogonalEdgeStyle;rounded=0;orthogonalLoop=1;jettySize=auto;html=1;entryX=0;entryY=0.5;entryDx=0;entryDy=0;" edge="1" parent="1" source="j3D5NYtS4tXC3Rus6Ahq-83" target="j3D5NYtS4tXC3Rus6Ahq-79">
          <mxGeometry relative="1" as="geometry" />
        </mxCell>
        <mxCell id="j3D5NYtS4tXC3Rus6Ahq-83" value="路由判断" style="rhombus;whiteSpace=wrap;html=1;fillColor=#d5e8d4;strokeColor=#82b366;" vertex="1" parent="1">
          <mxGeometry x="724" y="1130" width="70" height="70" as="geometry" />
        </mxCell>
        <mxCell id="j3D5NYtS4tXC3Rus6Ahq-101" value="" style="shape=flexArrow;endArrow=classic;html=1;rounded=0;edgeStyle=orthogonalEdgeStyle;fillColor=#b1ddf0;strokeColor=#10739e;" edge="1" parent="1">
          <mxGeometry width="50" height="50" relative="1" as="geometry">
            <mxPoint x="316.97" y="1080" as="sourcePoint" />
            <mxPoint x="372.47" y="1000" as="targetPoint" />
            <Array as="points">
              <mxPoint x="373.47" y="1080" />
              <mxPoint x="373.47" y="1000" />
            </Array>
          </mxGeometry>
        </mxCell>
        <mxCell id="j3D5NYtS4tXC3Rus6Ahq-103" value="" style="shape=flexArrow;endArrow=classic;html=1;rounded=0;edgeStyle=orthogonalEdgeStyle;fillColor=#b1ddf0;strokeColor=#10739e;" edge="1" parent="1">
          <mxGeometry width="50" height="50" relative="1" as="geometry">
            <mxPoint x="794" y="1010" as="sourcePoint" />
            <mxPoint x="860" y="1080" as="targetPoint" />
            <Array as="points">
              <mxPoint x="794" y="1080" />
            </Array>
          </mxGeometry>
        </mxCell>
        <mxCell id="j3D5NYtS4tXC3Rus6Ahq-104" value="" style="shape=flexArrow;endArrow=classic;html=1;rounded=0;fillColor=#b1ddf0;strokeColor=#10739e;" edge="1" parent="1">
          <mxGeometry width="50" height="50" relative="1" as="geometry">
            <mxPoint x="320" y="1310" as="sourcePoint" />
            <mxPoint x="870" y="1310" as="targetPoint" />
          </mxGeometry>
        </mxCell>
        <mxCell id="j3D5NYtS4tXC3Rus6Ahq-105" value="数据转发流向" style="text;html=1;strokeColor=none;fillColor=none;align=center;verticalAlign=middle;whiteSpace=wrap;rounded=0;" vertex="1" parent="1">
          <mxGeometry x="530" y="1270" width="90" height="30" as="geometry" />
        </mxCell>
        <mxCell id="j3D5NYtS4tXC3Rus6Ahq-106" value="如果Linux主机要支持转发，则需要开启内核的IP_FORWARD功能&lt;br&gt;可临时修改文件/proc/sys/net/ipv4/ip_forward" style="text;html=1;strokeColor=none;fillColor=none;align=center;verticalAlign=middle;whiteSpace=wrap;rounded=0;" vertex="1" parent="1">
          <mxGeometry x="400" y="1325" width="410" height="30" as="geometry" />
        </mxCell>
        <mxCell id="j3D5NYtS4tXC3Rus6Ahq-107" value="数据进入流向" style="text;html=1;strokeColor=none;fillColor=none;align=center;verticalAlign=middle;whiteSpace=wrap;rounded=0;" vertex="1" parent="1">
          <mxGeometry x="290" y="1040" width="60" height="30" as="geometry" />
        </mxCell>
        <mxCell id="j3D5NYtS4tXC3Rus6Ahq-108" value="数据发出流向" style="text;html=1;strokeColor=none;fillColor=none;align=center;verticalAlign=middle;whiteSpace=wrap;rounded=0;" vertex="1" parent="1">
          <mxGeometry x="818" y="1030" width="60" height="30" as="geometry" />
        </mxCell>
        <mxCell id="j3D5NYtS4tXC3Rus6Ahq-118" value="" style="endArrow=classic;html=1;rounded=0;dashed=1;fillColor=#b1ddf0;strokeColor=#10739e;" edge="1" parent="1">
          <mxGeometry width="50" height="50" relative="1" as="geometry">
            <mxPoint x="310" y="1190" as="sourcePoint" />
            <mxPoint x="310" y="1240" as="targetPoint" />
          </mxGeometry>
        </mxCell>
        <mxCell id="j3D5NYtS4tXC3Rus6Ahq-119" value="" style="endArrow=classic;html=1;rounded=0;dashed=1;fillColor=#b1ddf0;strokeColor=#10739e;" edge="1" parent="1">
          <mxGeometry width="50" height="50" relative="1" as="geometry">
            <mxPoint x="634" y="1190" as="sourcePoint" />
            <mxPoint x="634" y="1225" as="targetPoint" />
          </mxGeometry>
        </mxCell>
        <mxCell id="j3D5NYtS4tXC3Rus6Ahq-120" value="" style="endArrow=classic;html=1;rounded=0;dashed=1;fillColor=#b1ddf0;strokeColor=#10739e;" edge="1" parent="1">
          <mxGeometry width="50" height="50" relative="1" as="geometry">
            <mxPoint x="980" y="1190" as="sourcePoint" />
            <mxPoint x="980" y="1225" as="targetPoint" />
          </mxGeometry>
        </mxCell>
      </root>
    </mxGraphModel>
  </diagram>
</mxfile>
